# xmcd
#
# Track frame offsets:
#	150
#	26502
#	60979
#	88833
#	109960
#	133392
#	181739
#	214776
#	239716
#	272093
#
# Disc length: 3972
#
# Revision: 1
# Processed by: cddbd v1.5.1PL0 Copyright (c) Steve Scherf et al.
# Submitted via: dBpowerAMP V4.0
# Normalized: r0:TDELIM( - )
#
DISCID=920f820a
DTITLE=American Folk Blues Festival - 1982 Sons Of Blues
DYEAR=1900
DGENRE=Blues
TTITLE0=BB King - Never make your move to soon
TTITLE1=BB king - Did you ever loved a woman
TTITLE2=RM Williamson - Eyesight to the blind
TTITLE3=BB king_ J Taub - Sweet little angel T1
TTITLE4=Lurie Bell - My kind of woman
TTITLE5=L Fulson - Reconsider Baby
TTITLE6=Albert King - Detroit Michigan
TTITLE7=C Bell_ Harrington - Goin n on main street
TTITLE8=Jr Wells - The train i ride
TTITLE9=BB king_ J Taub - Sweet little angel T2
EXTD=
EXTT0=
EXTT1=
EXTT2=
EXTT3=
EXTT4=
EXTT5=
EXTT6=
EXTT7=
EXTT8=
EXTT9=
PLAYORDER=
